<?xml version="1.0" encoding="UTF-8" standalone="no"?>
<svg
   xmlns:dc="http://purl.org/dc/elements/1.1/"
   xmlns:cc="http://creativecommons.org/ns#"
   xmlns:rdf="http://www.w3.org/1999/02/22-rdf-syntax-ns#"
   xmlns:svg="http://www.w3.org/2000/svg"
   xmlns="http://www.w3.org/2000/svg"
   xmlns:sodipodi="http://sodipodi.sourceforge.net/DTD/sodipodi-0.dtd"
   xmlns:inkscape="http://www.inkscape.org/namespaces/inkscape"
   viewBox="0 0 512 512"
   version="1.1"
   id="svg4"
   sodipodi:docname="turn-straight-right.svg"
   width="512"
   height="512"
   inkscape:version="0.92.3 (2405546, 2018-03-11)">
  <metadata
     id="metadata10">
    <rdf:RDF>
      <cc:Work
         rdf:about="">
        <dc:format>image/svg+xml</dc:format>
        <dc:type
           rdf:resource="http://purl.org/dc/dcmitype/StillImage" />
        <dc:title></dc:title>
      </cc:Work>
    </rdf:RDF>
  </metadata>
  <defs
     id="defs8" />
  <sodipodi:namedview
     pagecolor="#ffffff"
     bordercolor="#666666"
     borderopacity="1"
     objecttolerance="10"
     gridtolerance="10"
     guidetolerance="10"
     inkscape:pageopacity="0"
     inkscape:pageshadow="2"
     inkscape:window-width="1920"
     inkscape:window-height="1001"
     id="namedview6"
     showgrid="false"
     inkscape:zoom="1"
     inkscape:cx="188.15621"
     inkscape:cy="271.59326"
     inkscape:window-x="0"
     inkscape:window-y="27"
     inkscape:window-maximized="1"
     inkscape:current-layer="svg4" />
  <path
     d="M 224.99643,166.059 V 468 c 0,6.627 5.373,12 12,12 h 56 c 6.627,0 12,-5.373 12,-12 V 166.059 h 46.059 c 21.382,0 32.09,-25.851 16.971,-40.971 l -86.059,-86.059 c -9.373,-9.373 -24.569,-9.373 -33.941,0 l -86.059,86.059 c -15.119,15.119 -4.411,40.971 16.971,40.971 z"
     id="path2"
     inkscape:connector-curvature="0"
     style="fill:#ffffff" />
  <path
     inkscape:connector-curvature="0"
     d="m 225.91906,222.50798 -1.53406,79.99999 h 151.6029 v 46.059 c 0,21.382 25.851,32.09 40.971,16.971 l 86.059,-86.059 c 9.373,-9.373 9.373,-24.569 0,-33.94099 l -86.059,-86.059 c -15.119,-15.119 -40.971,-4.411 -40.971,16.971 v 46.058"
     id="path2-3"
     sodipodi:nodetypes="cccscscssc"
     style="fill:#ffffff" />
</svg>
